PathFileType	4	(X/Y/Z)	./resultDataOpenSim/trcMotMarkerGrf/sub06/qtm-04-07.trc
DataRate	CameraRate	NumFrames	NumMarkers	Units	OrigDataRate	OrigDataStartFrame	OrigNumFrames
250.000000	250.000000	13	24	m	250.000000	278	554
Frame#	Time	L.Toe.Tip			R.Toe.Tip			L.Ankle.Lat			R.Ankle.Lat			L.Ankle.Med			R.Ankle.Med			L.Heel			R.Heel			L.Knee.Lat			R.Knee.Lat			L.Knee.Med			R.Knee.Med			L.Thigh.Upper			R.Thigh.Upper			L.ASIS			R.ASIS			V.Sacral			L.Acromium			R.Acromium			C7			L.Elbow			R.Elbow			L.Wrist.Lat			R.Wrist.Lat
		X1	Y1	Z1	X2	Y2	Z2	X3	Y3	Z3	X4	Y4	Z4	X5	Y5	Z5	X6	Y6	Z6	X7	Y7	Z7	X8	Y8	Z8	X9	Y9	Z9	X10	Y10	Z10	X11	Y11	Z11	X12	Y12	Z12	X13	Y13	Z13	X14	Y14	Z14	X15	Y15	Z15	X16	Y16	Z16	X17	Y17	Z17	X18	Y18	Z18	X19	Y19	Z19	X20	Y20	Z20	X21	Y21	Z21	X22	Y22	Z22	X23	Y23	Z23	X24	Y24	Z24

278	1.108	0.054604423	-0.04018626	-0.03408977	0.7114428	0.12095068	0.14601835	-0.056327394	0.023982933	-0.05256208	0.57774668	0.095446366	0.1531953	-0.043673379	0.04050563	0.032422179	0.59782096	0.13068678	0.070976801	-0.12935537	0.016817068	-0.00014702701	0.54262268	0.059116314	0.0849521	0.09168862	0.3679956	-0.079208132	0.48828981	0.47682429	0.17639206	0.086146544	0.36824116	0.042501388	0.48225831	0.45668608	0.051181805	0.18583267	0.74080745	-0.14850328	0.23781894	0.74993381	0.19978486	0.27297194	0.78493484	-0.11488913	0.3106632	0.79970874	0.12505849	0.1116884	0.86290297	0.035538017	0.26347353	1.270137	-0.16184236	0.25114504	1.2545172	0.20079946	0.18403163	1.3053621	0.016357982	0.24396791	0.94850806	-0.22483728	0.097380458	0.98182705	0.25543149	0.47161237	0.82924322	-0.19746565	0.15119066	0.75444346	0.31628917
279	1.112	0.054593648	-0.040225269	-0.034097558	0.7245698	0.12220825	0.14525959	-0.055788382	0.02443805	-0.052797362	0.59112545	0.095085398	0.1534363	-0.04335789	0.040774386	0.03216843	0.61008698	0.13074549	0.071279793	-0.12896192	0.017880395	-0.0004973831	0.55588205	0.058476584	0.085588512	0.094943323	0.36742294	-0.079226021	0.49497756	0.47465952	0.17609123	0.089803183	0.36728064	0.042443036	0.4889978	0.45426067	0.050700427	0.19001456	0.73962777	-0.14803827	0.24509318	0.74806412	0.19986376	0.27778217	0.78376566	-0.1146818	0.31737925	0.79825761	0.12463432	0.11867027	0.86122247	0.036606808	0.26931108	1.2685805	-0.1616057	0.25737228	1.2528542	0.20126557	0.19018541	1.3040158	0.016816234	0.25545866	0.94494314	-0.22680753	0.10377985	0.98025112	0.25592714	0.47964166	0.8291373	-0.19617762	0.15650604	0.75284157	0.31724201
280	1.116	0.054586045	-0.040255322	-0.034104837	0.73695778	0.12340954	0.14444203	-0.055237201	0.024935993	-0.053017369	0.6037063	0.094811927	0.15373896	-0.042961341	0.041093452	0.031943826	0.62163973	0.13072774	0.071572136	-0.12854032	0.018992002	-0.0008153468	0.56839758	0.057784287	0.08631438	0.09822504	0.36681326	-0.079210663	0.50175987	0.47260572	0.17574923	0.093386632	0.36633976	0.042517745	0.49572658	0.45193239	0.050163529	0.1942465	0.7384276	-0.14756933	0.25241669	0.74613771	0.19995407	0.28249484	0.78259191	-0.11442816	0.32412584	0.79677358	0.12422137	0.12543658	0.85966196	0.037786115	0.27517346	1.2670194	-0.16136242	0.26363974	1.2511744	0.20175075	0.19638657	1.3026689	0.017296791	0.26747079	0.94128412	-0.22999877	0.11024882	0.97864485	0.2564562	0.48761647	0.82896894	-0.19491584	0.16189859	0.7512142	0.3182026
281	1.12	0.054589701	-0.04027107	-0.03411601	0.74858776	0.12450838	0.1435818	-0.054661463	0.025476139	-0.053213812	0.61553078	0.09454062	0.15407582	-0.042389223	0.041517949	0.031775757	0.63246989	0.13057022	0.071847925	-0.12807745	0.020157259	-0.001093529	0.58014672	0.057012103	0.087111265	0.10158048	0.36617548	-0.079192893	0.50863556	0.47068921	0.17536394	0.096873128	0.36548076	0.042683443	0.50241354	0.44973641	0.049583627	0.19853668	0.73722369	-0.14708548	0.25978234	0.74417329	0.20006464	0.2872334	0.7813585	-0.11431707	0.33090863	0.79526203	0.1238271	0.13180557	0.85826153	0.039093551	0.28106618	1.2654685	-0.16110375	0.26995577	1.2494854	0.20225807	0.20262794	1.3013204	0.017815135	0.27727643	0.93841442	-0.23214659	0.11679169	0.97701463	0.2570169	0.49553232	0.82873677	-0.19367611	0.16743928	0.74958689	0.31919147
282	1.124	0.054606182	-0.040275867	-0.034130759	0.75944192	0.12545965	0.14270115	-0.054072251	0.026066241	-0.053383859	0.6266438	0.09421109	0.15442324	-0.041626435	0.042061235	0.031666861	0.64257414	0.13020393	0.072104263	-0.12756613	0.021379386	-0.0013281181	0.59111966	0.05613261	0.087961286	0.10500581	0.36552202	-0.079192445	0.51560939	0.46893588	0.17492983	0.10036942	0.36472882	0.042814108	0.50902823	0.44768969	0.048974701	0.20289269	0.73602803	-0.14656823	0.26722554	0.74220917	0.20022124	0.29208462	0.78004733	-0.11446098	0.33772423	0.79372125	0.12345092	0.13795158	0.85696412	0.040462132	0.28699565	1.2639411	-0.16082123	0.27633368	1.247793	0.20278953	0.20889291	1.2999698	0.018392951	0.28485571	0.93635484	-0.23298109	0.12341407	0.97536362	0.25760594	0.50338653	0.82843815	-0.19245552	0.17314735	0.74796747	0.32021647
283	1.128	0.054630762	-0.040276951	-0.03414641	0.76951171	0.12621977	0.14181861	-0.05348358	0.026711682	-0.053532277	0.63704613	0.093795759	0.15476792	-0.040737025	0.042693126	0.031591668	0.65197022	0.12958327	0.07233584	-0.12700299	0.022662141	-0.0015193772	0.60132372	0.055114849	0.088840875	0.10847521	0.36486903	-0.079218372	0.5226854	0.46736376	0.17443619	0.10405015	0.36406555	0.042769709	0.51555357	0.4457912	0.048378977	0.20732598	0.73484288	-0.14600684	0.27482039	0.74030153	0.20046546	0.29702613	0.77867536	-0.11486569	0.34456901	0.79215056	0.12309006	0.1441189	0.85570408	0.041823281	0.29296338	1.2624413	-0.16050595	0.28277473	1.2461017	0.20334159	0.2151715	1.2986155	0.019039061	0.29140042	0.93471178	-0.2331367	0.13011707	0.97369784	0.25821731	0.51117538	0.82806833	-0.19125539	0.17898989	0.74634358	0.32127094
284	1.132	0.054654886	-0.040282242	-0.034160134	0.77880673	0.12674046	0.14094684	-0.052889527	0.027409409	-0.053670403	0.64670605	0.093282167	0.1550978	-0.039822042	0.043356756	0.031506635	0.66069417	0.12871467	0.072499111	-0.12638136	0.024010434	-0.0016738329	0.61076995	0.053939904	0.08971219	0.11196855	0.36423117	-0.079277524	0.52985188	0.46596906	0.17386711	0.10804845	0.36345143	0.042477596	0.52198525	0.44403658	0.047869739	0.21184895	0.73366679	-0.14540308	0.28260797	0.73849997	0.20081872	0.30202363	0.77727825	-0.11543272	0.35144685	0.79055774	0.12274323	0.15039655	0.85446939	0.043175561	0.29896621	1.260969	-0.1601504	0.28927377	1.2444186	0.20391018	0.22148241	1.2972533	0.01972808	0.2978013	0.93324579	-0.23314987	0.13689842	0.97202836	0.25884451	0.5188976	0.82762602	-0.19007846	0.18493632	0.74470502	0.32234347
285	1.136	0.054673534	-0.040295237	-0.034169942	0.78735744	0.12696399	0.14009577	-0.05225797	0.028157111	-0.053815937	0.65560877	0.092649152	0.15538701	-0.038947418	0.044008021	0.031371044	0.66878049	0.12764333	0.072519509	-0.12569328	0.025429362	-0.001807648	0.61946414	0.052615767	0.090525877	0.1154711	0.36362032	-0.079383787	0.53707427	0.46472128	0.17320934	0.11238032	0.36282551	0.042000561	0.52834061	0.44243651	0.04749786	0.21646697	0.73250266	-0.1447707	0.29051969	0.73680888	0.20124138	0.30709332	0.77589546	-0.11600628	0.35836653	0.78895708	0.12240728	0.15673381	0.85328995	0.044570433	0.30500224	1.25953	-0.15975288	0.2958352	1.2427559	0.20449736	0.22787572	1.2958843	0.020393243	0.30441728	0.93203191	-0.2332314	0.14375591	0.97036781	0.25948399	0.52655545	0.8271187	-0.18892662	0.19098994	0.74305963	0.32342791
286	1.14	0.054690321	-0.040312203	-0.034175272	0.79520597	0.12682698	0.13927829	-0.051545137	0.02895743	-0.053986355	0.66376179	0.091868791	0.15560341	-0.03810442	0.044647845	0.031166118	0.67624714	0.12639865	0.072362544	-0.12493769	0.026922236	-0.0019462819	0.62741106	0.051173272	0.091234875	0.11897015	0.36304505	-0.079554129	0.54430877	0.46357943	0.17246501	0.11692842	0.36213035	0.041510266	0.53468491	0.44102099	0.047205783	0.22117796	0.73135801	-0.14412688	0.29841249	0.73519409	0.20165003	0.31226901	0.7745506	-0.11648328	0.36533405	0.78736325	0.12207637	0.16307734	0.85218748	0.04602706	0.31107497	1.2581373	-0.15931634	0.3024675	1.2411277	0.20510726	0.23439561	1.2945256	0.020967986	0.31146024	0.93127082	-0.23318107	0.15068979	0.96872872	0.2601339	0.53414958	0.82655885	-0.18780246	0.19716936	0.74142714	0.32452354
287	1.144	0.05471234	-0.040326539	-0.034177417	0.80239566	0.12627303	0.13851444	-0.050724902	0.029812884	-0.054189998	0.67117862	0.090918683	0.15572168	-0.037226445	0.04532242	0.030906923	0.68310401	0.12497682	0.072069791	-0.12411876	0.028488418	-0.0021173611	0.63462013	0.049646575	0.091804721	0.12247445	0.36250704	-0.079785186	0.55152274	0.46250785	0.1716533	0.12152282	0.36137548	0.041128444	0.54111279	0.43981646	0.046842378	0.22598306	0.73023663	-0.1434816	0.30620202	0.73364317	0.20199167	0.31755989	0.77324462	-0.11686705	0.37235132	0.78578776	0.12174586	0.16948328	0.85114119	0.047447593	0.31719282	1.2568042	-0.15884218	0.30916995	1.2395442	0.20573952	0.24102052	1.2932103	0.021475223	0.31906871	0.93096097	-0.23265086	0.15770467	0.96712498	0.26079181	0.54167698	0.82595556	-0.18670893	0.20348794	0.73982773	0.32563134
288	1.148	0.054742403	-0.040334903	-0.03417962	0.80896463	0.12526682	0.13782568	-0.049801547	0.030722021	-0.054429475	0.6778797	0.089786856	0.15572464	-0.036249701	0.046087715	0.030632322	0.68936992	0.12337401	0.071702541	-0.12323708	0.030129467	-0.0023407554	0.64111035	0.04805382	0.092212417	0.12602502	0.36200201	-0.080042858	0.55870425	0.46147964	0.1707995	0.12606291	0.36062904	0.040833315	0.54766299	0.43880966	0.046310079	0.23089221	0.72913365	-0.14283562	0.31391943	0.7321912	0.20227892	0.322952	0.77196742	-0.11721008	0.37942402	0.78423868	0.12141528	0.17606466	0.85011102	0.048674242	0.32336535	1.2555389	-0.1583274	0.31593719	1.2380112	0.2063913	0.2476587	1.2919628	0.022051493	0.32703795	0.93077164	-0.2316504	0.16480855	0.96557085	0.26145472	0.54913485	0.82531093	-0.18564513	0.20995185	0.73827661	0.32675222
289	1.152	0.054779207	-0.040338065	-0.034185842	0.81494251	0.12379854	0.13722066	-0.048791474	0.031679505	-0.054711359	0.68389687	0.088469773	0.15559978	-0.035187286	0.046953615	0.030361399	0.69507047	0.12159965	0.071275827	-0.12228914	0.031857385	-0.0026225584	0.646912	0.046394135	0.092439895	0.12966434	0.3615247	-0.08029133	0.56585449	0.46047784	0.16992613	0.1305613	0.35993459	0.040538875	0.55427485	0.43794214	0.04564199	0.23591777	0.72803995	-0.14218373	0.32163892	0.73088248	0.2025499	0.32843331	0.77070907	-0.11754475	0.3865669	0.78272198	0.12108935	0.18283338	0.84908882	0.049665307	0.32959951	1.2543448	-0.15776698	0.32276723	1.2365329	0.2070611	0.25423729	1.2907785	0.02282116	0.33496756	0.93028973	-0.2305404	0.17200863	0.96407643	0.26212019	0.5565229	0.82462248	-0.18460628	0.21656603	0.7367835	0.32788526
290	1.156	0.054822602	-0.040337525	-0.03419827	0.82035491	0.12187981	0.1366856	-0.047699625	0.032679414	-0.055044831	0.68926821	0.086966328	0.15533596	-0.034111194	0.047874746	0.030067039	0.70022897	0.11966121	0.0707589	-0.1212732	0.033690404	-0.0029531273	0.65206047	0.044658726	0.09246952	0.13341241	0.36106979	-0.080519703	0.5729702	0.45949748	0.1690557	0.13510144	0.3592599	0.040205661	0.56084405	0.43714298	0.044926073	0.24106735	0.72694994	-0.14151648	0.32940198	0.72973974	0.20282473	0.33400542	0.76946524	-0.11786869	0.39379353	0.78124146	0.12077534	0.18968227	0.84810238	0.050536341	0.33589941	1.2532226	-0.15715774	0.32966074	1.2351139	0.20774931	0.26079171	1.2896307	0.023750905	0.34266174	0.9293565	-0.22959458	0.17930381	0.96264607	0.26278659	0.56384092	0.82388878	-0.18359042	0.22334089	0.73535434	0.32902751
